Alegreya Sans-Italic.ufo
<glyph name="quotedbl" format="1">
  <advance width="279"/>
  <unicode hex="0022"/>
  <outline>
    <contour>
      <point x="222" y="634" type="line"/>
      <point x="195" y="453" type="line"/>
      <point x="200" y="446" type="line"/>
      <point x="240" y="452" type="line"/>
      <point x="285" y="632" type="line"/>
      <point x="281" y="638" type="line"/>
    </contour>
    <contour>
      <point x="106" y="634" type="line"/>
      <point x="79" y="453" type="line"/>
      <point x="84" y="446" type="line"/>
      <point x="124" y="452" type="line"/>
      <point x="169" y="632" type="line"/>
      <point x="165" y="638" type="line"/>
    </contour>
  </outline>
</glyph>
<glyph name="hyphen" format="1">
  <advance width="308"/>
  <unicode hex="002D"/>
  <outline>
    <contour>
      <point x="34" y="265" type="line"/>
      <point x="28" y="217" type="line"/>
      <point x="34" y="210" type="line"/>
      <point x="280" y="244" type="line"/>
      <point x="286" y="292" type="line"/>
      <point x="280" y="299" type="line"/>
    </contour>
  </outline>
</glyph>
<glyph name="three" format="1">
  <advance width="411"/>
  <unicode hex="0033"/>
  <outline>
    <contour>
      <point x="159" y="502"/>
      <point x="112" y="482"/>
      <point x="57" y="440" type="curve"/>
      <point x="61" y="380" type="line"/>
      <point x="69" y="380" type="line"/>
      <point x="117" y="419"/>
      <point x="158" y="440"/>
      <point x="202" y="440" type="curve" smooth="yes"/>
      <point x="251" y="440"/>
      <point x="281" y="413"/>
      <point x="281" y="370" type="curve" smooth="yes"/>
      <point x="281" y="297"/>
      <point x="202" y="245"/>
      <point x="144" y="245" type="curve" smooth="yes"/>
      <point x="100" y="244" type="line"/>
      <point x="92" y="192" type="line"/>
      <point x="96" y="186" type="line"/>
      <point x="154" y="186" type="line"/>
      <point x="232" y="183"/>
      <point x="274" y="149"/>
      <point x="274" y="93" type="curve" smooth="yes"/>
      <point x="274" y="13"/>
      <point x="205" y="-37"/>
      <point x="108" y="-37" type="curve" smooth="yes"/>
      <point x="76" y="-37"/>
      <point x="41" y="-29"/>
      <point x="10" y="-14" type="curve"/>
      <point x="3" y="-20" type="line"/>
      <point x="0" y="-87" type="line"/>
      <point x="29" y="-93"/>
      <point x="69" y="-97"/>
      <point x="100" y="-97" type="curve" smooth="yes"/>
      <point x="241" y="-97"/>
      <point x="347" y="-13"/>
      <point x="347" y="98" type="curve" smooth="yes"/>
      <point x="347" y="166"/>
      <point x="307" y="206"/>
      <point x="238" y="224" type="curve"/>
      <point x="239" y="227" type="line"/>
      <point x="320" y="265"/>
      <point x="359" y="329"/>
      <point x="359" y="385" type="curve" smooth="yes"/>
      <point x="359" y="455"/>
      <point x="304" y="502"/>
      <point x="213" y="502" type="curve" smooth="yes"/>
    </contour>
  </outline>
</glyph>
<glyph name="question" format="1">
  <advance width="331"/>
  <unicode hex="003F"/>
  <outline>
    <contour>
      <point x="121" y="656" type="line"/>
      <point x="101" y="614" type="line"/>
      <point x="106" y="606" type="line"/>
      <point x="231" y="598"/>
      <point x="291" y="562"/>
      <point x="291" y="501" type="curve" smooth="yes"/>
      <point x="291" y="459"/>
      <point x="263" y="423"/>
      <point x="216" y="397" type="curve" smooth="yes"/>
      <point x="113" y="339" type="line"/>
      <point x="107" y="329" type="line"/>
      <point x="101" y="215" type="line"/>
      <point x="106" y="208" type="line"/>
      <point x="160" y="214" type="line"/>
      <point x="167" y="311" type="line"/>
      <point x="169" y="315" type="line"/>
      <point x="260" y="370" type="line" smooth="yes"/>
      <point x="324" y="408"/>
      <point x="361" y="460"/>
      <point x="361" y="516" type="curve" smooth="yes"/>
      <point x="361" y="600"/>
      <point x="279" y="652"/>
      <point x="130" y="661" type="curve"/>
    </contour>
    <component base="period" xOffset="30"/>
  </outline>
</glyph>
<glyph name="D" format="1">
  <advance width="620"/>
  <unicode hex="0044"/>
  <outline>
    <contour>
      <point x="145" y="640" type="line"/>
      <point x="198" y="577" type="line"/>
      <point x="226" y="579"/>
      <point x="327" y="582"/>
      <point x="350" y="582" type="curve" smooth="yes"/>
      <point x="462" y="582"/>
      <point x="520" y="515"/>
      <point x="520" y="381" type="curve" smooth="yes"/>
      <point x="520" y="170"/>
      <point x="431" y="57"/>
      <point x="281" y="57" type="curve" smooth="yes"/>
      <point x="257" y="57"/>
      <point x="164" y="61"/>
      <point x="123" y="65" type="curve"/>
      <point x="64" y="0" type="line"/>
      <point x="116" y="-3"/>
      <point x="230" y="-6"/>
      <point x="266" y="-6" type="curve"/>
      <point x="481" y="-6"/>
      <point x="599" y="148"/>
      <point x="599" y="395" type="curve" smooth="yes"/>
      <point x="599" y="555"/>
      <point x="511" y="645"/>
      <point x="358" y="645" type="curve"/>
    </contour>
    <contour>
      <point x="144" y="640" type="line"/>
      <point x="92" y="193" type="line"/>
      <point x="63" y="0" type="line"/>
      <point x="138" y="0" type="line"/>
      <point x="159" y="199" type="line"/>
      <point x="219" y="640" type="line"/>
    </contour>
    <contour>
      <point x="308" y="321" type="move" name="center"/>
    </contour>
    <contour>
      <point x="331" y="640" type="move" name="top"/>
    </contour>
  </outline>
</glyph>
<glyph name="K" format="1">
  <advance width="520"/>
  <unicode hex="004B"/>
  <outline>
    <contour>
      <point x="471" y="640" type="line"/>
      <point x="426" y="586" type="line"/>
      <point x="191" y="342" type="line"/>
      <point x="190" y="336" type="line"/>
      <point x="258" y="219"/>
      <point x="334" y="105"/>
      <point x="412" y="-4" type="curve"/>
      <point x="419" y="-9" type="line"/>
      <point x="444" y="-5"/>
      <point x="468" y="-0"/>
      <point x="492" y="7" type="curve"/>
      <point x="495" y="16" type="line"/>
      <point x="415" y="117"/>
      <point x="337" y="227"/>
      <point x="271" y="338" type="curve"/>
      <point x="556" y="640" type="line"/>
    </contour>
    <contour>
      <point x="143" y="640" type="line"/>
      <point x="91" y="193" type="line"/>
      <point x="62" y="0" type="line"/>
      <point x="137" y="0" type="line"/>
      <point x="159" y="199" type="line"/>
      <point x="218" y="640" type="line"/>
    </contour>
    <contour>
      <point x="276" y="0" type="move" name="bottom"/>
    </contour>
    <contour>
      <point x="268" y="640" type="move" name="top"/>
    </contour>
  </outline>
</glyph>
<glyph name="backslash" format="1">
  <advance width="291"/>
  <unicode hex="005C"/>
  <outline>
    <contour>
      <point x="30" y="669" type="line"/>
      <point x="235" y="-113" type="line"/>
      <point x="287" y="-113" type="line"/>
      <point x="292" y="-105" type="line"/>
      <point x="88" y="678" type="line"/>
      <point x="36" y="678" type="line"/>
    </contour>
  </outline>
</glyph>
<glyph name="a" format="1">
  <advance width="439"/>
  <unicode hex="0061"/>
  <outline>
    <contour>
      <point x="316" y="434" type="line"/>
      <point x="312" y="358" type="line"/>
      <point x="261" y="-4" type="line"/>
      <point x="336" y="3" type="line"/>
      <point x="341" y="109" type="line"/>
      <point x="391" y="460" type="line"/>
      <point x="381" y="466" type="line"/>
    </contour>
    <contour>
      <point x="189" y="192" type="move"/>
    </contour>
    <contour>
      <point x="111" y="440"/>
      <point x="33" y="289"/>
      <point x="33" y="150" type="curve" smooth="yes"/>
      <point x="33" y="71"/>
      <point x="59" y="21"/>
      <point x="109" y="-7" type="curve"/>
      <point x="123" y="-7" type="line"/>
      <point x="180" y="48"/>
      <point x="234" y="120"/>
      <point x="280" y="201" type="curve"/>
      <point x="300" y="201" type="line"/>
      <point x="314" y="359" type="line"/>
      <point x="236" y="170"/>
      <point x="151" y="75"/>
      <point x="130" y="75" type="curve" smooth="yes"/>
      <point x="118" y="75"/>
      <point x="101" y="95"/>
      <point x="101" y="169" type="curve" smooth="yes"/>
      <point x="101" y="297"/>
      <point x="157" y="404"/>
      <point x="252" y="404" type="curve"/>
      <point x="337" y="373" type="line"/>
      <point x="366" y="431" type="line"/>
      <point x="272" y="465" type="line"/>
      <point x="267" y="465" type="line"/>
    </contour>
    <contour>
      <point x="392" y="10" type="move" name="ogonek"/>
    </contour>
    <contour>
      <point x="248" y="459" type="move" name="top"/>
    </contour>
  </outline>
</glyph>
<glyph name="d" format="1">
  <advance width="441"/>
  <unicode hex="0064"/>
  <outline>
    <contour>
      <point x="268" y="465" type="line"/>
      <point x="111" y="441"/>
      <point x="32" y="289"/>
      <point x="32" y="150" type="curve" smooth="yes"/>
      <point x="32" y="70"/>
      <point x="58" y="21"/>
      <point x="107" y="-7" type="curve"/>
      <point x="123" y="-7" type="line"/>
      <point x="180" y="48"/>
      <point x="235" y="120"/>
      <point x="282" y="201" type="curve"/>
      <point x="301" y="201" type="line"/>
      <point x="316" y="359" type="line"/>
      <point x="237" y="170"/>
      <point x="150" y="75"/>
      <point x="130" y="75" type="curve" smooth="yes"/>
      <point x="117" y="75"/>
      <point x="99" y="95"/>
      <point x="99" y="169" type="curve" smooth="yes"/>
      <point x="99" y="297"/>
      <point x="156" y="404"/>
      <point x="253" y="404" type="curve"/>
      <point x="340" y="373" type="line"/>
      <point x="367" y="431" type="line"/>
      <point x="273" y="465" type="line"/>
    </contour>
    <contour>
      <point x="351" y="697" type="line"/>
      <point x="348" y="600" type="line"/>
      <point x="263" y="-4" type="line"/>
      <point x="339" y="3" type="line"/>
      <point x="344" y="109" type="line"/>
      <point x="427" y="704" type="line"/>
    </contour>
    <contour>
      <point x="331" y="0" type="move" name="bottom"/>
    </contour>
    <contour>
      <point x="315" y="229" type="move" name="center"/>
    </contour>
    <contour>
      <point x="332" y="459" type="move" name="top"/>
    </contour>
    <contour>
      <point x="439" y="459" type="move" name="topright"/>
    </contour>
  </outline>
</glyph>
<glyph name="f" format="1">
  <advance width="280"/>
  <unicode hex="0066"/>
  <outline>
    <contour>
      <point x="218" y="704"/>
      <point x="163" y="637"/>
      <point x="147" y="518" type="curve" smooth="yes"/>
      <point x="101" y="190" type="line"/>
      <point x="57" y="-127" type="line"/>
      <point x="133" y="-121" type="line"/>
      <point x="137" y="-14" type="line"/>
      <point x="168" y="199" type="line"/>
      <point x="213" y="537" type="line" smooth="yes"/>
      <point x="222" y="610"/>
      <point x="261" y="649"/>
      <point x="314" y="649" type="curve" smooth="yes"/>
      <point x="337" y="649"/>
      <point x="369" y="641"/>
      <point x="394" y="627" type="curve"/>
      <point x="405" y="629" type="line"/>
      <point x="425" y="683" type="line"/>
      <point x="422" y="690" type="line"/>
      <point x="331" y="704" type="line"/>
    </contour>
    <contour>
      <point x="63" y="450" type="line"/>
      <point x="56" y="405" type="line"/>
      <point x="61" y="400" type="line"/>
      <point x="308" y="400" type="line"/>
      <point x="315" y="442" type="line"/>
      <point x="309" y="450" type="line"/>
    </contour>
  </outline>
</glyph>
<glyph name="k" format="1">
  <advance width="462"/>
  <unicode hex="006B"/>
  <outline>
    <contour>
      <point x="339" y="463" type="line"/>
      <point x="276" y="422"/>
      <point x="221" y="346"/>
      <point x="156" y="244" type="curve"/>
      <point x="141" y="244" type="line"/>
      <point x="120" y="81" type="line"/>
      <point x="221" y="294"/>
      <point x="297" y="382"/>
      <point x="339" y="382" type="curve" smooth="yes"/>
      <point x="350" y="382"/>
      <point x="363" y="375"/>
      <point x="363" y="348" type="curve" smooth="yes"/>
      <point x="363" y="297"/>
      <point x="315" y="246"/>
      <point x="227" y="191" type="curve"/>
      <point x="224" y="178" type="line"/>
      <point x="258" y="115"/>
      <point x="293" y="52"/>
      <point x="333" y="-8" type="curve"/>
      <point x="340" y="-12" type="line"/>
      <point x="402" y="0" type="line"/>
      <point x="406" y="7" type="line"/>
      <point x="365" y="63"/>
      <point x="327" y="123"/>
      <point x="291" y="182" type="curve"/>
      <point x="383" y="237"/>
      <point x="436" y="299"/>
      <point x="436" y="366" type="curve" smooth="yes"/>
      <point x="436" y="424"/>
      <point x="402" y="454"/>
      <point x="354" y="464" type="curve"/>
    </contour>
    <contour>
      <point x="135" y="697" type="line"/>
      <point x="132" y="600" type="line"/>
      <point x="47" y="-4" type="line"/>
      <point x="123" y="3" type="line"/>
      <point x="127" y="109" type="line"/>
      <point x="211" y="704" type="line"/>
    </contour>
    <contour>
      <point x="221" y="0" type="move" name="bottom"/>
    </contour>
    <contour>
      <point x="112" y="458" type="move" name="top"/>
    </contour>
    <contour>
      <point x="219" y="458" type="move" name="topright"/>
    </contour>
  </outline>
</glyph>
<glyph name="l" format="1">
  <advance width="224"/>
  <unicode hex="006C"/>
  <outline>
    <contour>
      <point x="135" y="697" type="line"/>
      <point x="132" y="600" type="line"/>
      <point x="47" y="-4" type="line"/>
      <point x="123" y="3" type="line"/>
      <point x="127" y="109" type="line"/>
      <point x="211" y="704" type="line"/>
    </contour>
    <contour>
      <point x="85" y="0" type="move" name="bottom"/>
    </contour>
    <contour>
      <point x="171" y="700" type="move" name="top"/>
    </contour>
    <contour>
      <point x="230" y="458" type="move" name="topright"/>
    </contour>
  </outline>
</glyph>
<glyph name="n" format="1">
  <advance width="467"/>
  <unicode hex="006E"/>
  <outline>
    <contour>
      <point x="326" y="465" type="line"/>
      <point x="267" y="419"/>
      <point x="217" y="350"/>
      <point x="152" y="238" type="curve"/>
      <point x="137" y="238" type="line"/>
      <point x="117" y="85" type="line"/>
      <point x="210" y="282"/>
      <point x="286" y="382"/>
      <point x="324" y="382" type="curve" smooth="yes"/>
      <point x="339" y="382"/>
      <point x="345" y="370"/>
      <point x="345" y="351" type="curve"/>
      <point x="344" y="338" type="line"/>
      <point x="289" y="-4" type="line"/>
      <point x="366" y="3" type="line"/>
      <point x="372" y="108" type="line"/>
      <point x="413" y="365" type="line"/>
      <point x="414" y="378" type="line"/>
      <point x="416" y="425"/>
      <point x="381" y="455"/>
      <point x="337" y="465" type="curve"/>
    </contour>
    <contour>
      <point x="179" y="76" type="move"/>
    </contour>
    <contour>
      <point x="101" y="456" type="line"/>
      <point x="96" y="359" type="line"/>
      <point x="44" y="-4" type="line"/>
      <point x="120" y="3" type="line"/>
      <point x="125" y="109" type="line"/>
      <point x="174" y="463" type="line"/>
    </contour>
    <contour>
      <point x="208" y="0" type="move" name="bottom"/>
    </contour>
    <contour>
      <point x="264" y="458" type="move" name="top"/>
    </contour>
  </outline>
</glyph>
<glyph name="s" format="1">
  <advance width="317"/>
  <unicode hex="0073"/>
  <outline>
    <contour>
      <point x="127" y="466"/>
      <point x="49" y="407"/>
      <point x="49" y="324" type="curve" smooth="yes"/>
      <point x="49" y="211"/>
      <point x="201" y="199"/>
      <point x="201" y="117" type="curve" smooth="yes"/>
      <point x="201" y="81"/>
      <point x="171" y="45"/>
      <point x="124" y="45" type="curve" smooth="yes"/>
      <point x="89" y="45"/>
      <point x="54" y="65"/>
      <point x="27" y="102" type="curve"/>
      <point x="16" y="97" type="line"/>
      <point x="-3" y="26" type="line"/>
      <point x="29" y="8"/>
      <point x="60" y="-3"/>
      <point x="97" y="-8" type="curve"/>
      <point x="199" y="-7"/>
      <point x="270" y="55"/>
      <point x="270" y="136" type="curve" smooth="yes"/>
      <point x="270" y="251"/>
      <point x="118" y="267"/>
      <point x="118" y="341" type="curve" smooth="yes"/>
      <point x="118" y="376"/>
      <point x="150" y="411"/>
      <point x="192" y="411" type="curve" smooth="yes"/>
      <point x="218" y="411"/>
      <point x="246" y="396"/>
      <point x="271" y="367" type="curve"/>
      <point x="283" y="371" type="line"/>
      <point x="305" y="439" type="line"/>
      <point x="277" y="450"/>
      <point x="252" y="458"/>
      <point x="221" y="464" type="curve"/>
    </contour>
    <contour>
      <point x="137" y="0" type="move" name="bottom"/>
    </contour>
    <contour>
      <point x="195" y="458" type="move" name="top"/>
    </contour>
  </outline>
</glyph>
<glyph name="u" format="1">
  <advance width="471"/>
  <unicode hex="0075"/>
  <outline>
    <contour>
      <point x="104" y="458" type="line"/>
      <point x="96" y="353" type="line"/>
      <point x="55" y="95" type="line"/>
      <point x="54" y="82" type="line"/>
      <point x="53" y="35"/>
      <point x="88" y="6"/>
      <point x="131" y="-4" type="curve"/>
      <point x="142" y="-4" type="line"/>
      <point x="201" y="42"/>
      <point x="252" y="109"/>
      <point x="317" y="220" type="curve"/>
      <point x="332" y="220" type="line"/>
      <point x="352" y="376" type="line"/>
      <point x="259" y="178"/>
      <point x="183" y="78"/>
      <point x="144" y="78" type="curve" smooth="yes"/>
      <point x="132" y="78"/>
      <point x="123" y="87"/>
      <point x="124" y="108" type="curve"/>
      <point x="126" y="129" type="line"/>
      <point x="178" y="464" type="line"/>
    </contour>
    <contour>
      <point x="348" y="456" type="line"/>
      <point x="343" y="359" type="line"/>
      <point x="292" y="-4" type="line"/>
      <point x="368" y="3" type="line"/>
      <point x="372" y="109" type="line"/>
      <point x="422" y="463" type="line"/>
    </contour>
    <contour>
      <point x="397" y="10" type="move" name="ogonek"/>
    </contour>
    <contour>
      <point x="264" y="458" type="move" name="top"/>
    </contour>
  </outline>
</glyph>
<glyph name="w" format="1">
  <advance width="682"/>
  <unicode hex="0077"/>
  <outline>
    <contour>
      <point x="656" y="303"/>
      <point x="673" y="344"/>
      <point x="673" y="383" type="curve" smooth="yes"/>
      <point x="673" y="410"/>
      <point x="665" y="437"/>
      <point x="650" y="463" type="curve"/>
      <point x="580" y="447" type="line"/>
      <point x="578" y="437" type="line"/>
      <point x="593" y="415"/>
      <point x="601" y="394"/>
      <point x="601" y="370" type="curve" smooth="yes"/>
      <point x="601" y="342"/>
      <point x="589" y="312"/>
      <point x="569" y="276" type="curve" smooth="yes"/>
      <point x="467" y="85" type="line"/>
      <point x="460" y="85" type="line"/>
      <point x="429" y="402" type="line"/>
      <point x="426" y="459" type="line"/>
      <point x="348" y="459" type="line"/>
      <point x="325" y="398" type="line"/>
      <point x="185" y="85" type="line"/>
      <point x="178" y="85" type="line"/>
      <point x="147" y="402" type="line"/>
      <point x="145" y="463" type="line"/>
      <point x="72" y="456" type="line"/>
      <point x="125" y="0" type="line"/>
      <point x="207" y="0" type="line"/>
      <point x="366" y="357" type="line"/>
      <point x="373" y="357" type="line"/>
      <point x="410" y="0" type="line"/>
      <point x="488" y="0" type="line"/>
      <point x="629" y="255" type="line" smooth="yes"/>
    </contour>
    <contour>
      <point x="370" y="458" type="move" name="top"/>
    </contour>
  </outline>
</glyph>
<glyph name="asciitilde" format="1">
  <advance width="480"/>
  <unicode hex="007E"/>
  <outline>
    <contour>
      <point x="184" y="259"/>
      <point x="297" y="216"/>
      <point x="345" y="211" type="curve"/>
      <point x="355" y="213" type="line"/>
      <point x="435" y="286" type="line"/>
      <point x="436" y="294" type="line"/>
      <point x="419" y="320" type="line"/>
      <point x="411" y="320" type="line"/>
      <point x="376" y="290"/>
      <point x="354" y="269"/>
      <point x="338" y="269" type="curve"/>
      <point x="306" y="269"/>
      <point x="192" y="310"/>
      <point x="144" y="318" type="curve"/>
      <point x="134" y="313" type="line"/>
      <point x="54" y="242" type="line"/>
      <point x="53" y="234" type="line"/>
      <point x="70" y="208" type="line"/>
      <point x="79" y="208" type="line"/>
      <point x="113" y="237"/>
      <point x="134" y="259"/>
      <point x="152" y="259" type="curve"/>
    </contour>
  </outline>
</glyph>
<glyph name="sterling" format="1">
  <advance width="417"/>
  <unicode hex="00A3"/>
  <outline>
    <contour>
      <point x="205" y="593"/>
      <point x="141" y="536"/>
      <point x="129" y="432" type="curve" smooth="yes"/>
      <point x="95" y="152" type="line" smooth="yes"/>
      <point x="88" y="90"/>
      <point x="59" y="54"/>
      <point x="9" y="45" type="curve"/>
      <point x="1" y="6" type="line"/>
      <point x="5" y="0" type="line"/>
      <point x="254" y="0" type="line"/>
      <point x="350" y="-2" type="line"/>
      <point x="363" y="54" type="line"/>
      <point x="360" y="60" type="line"/>
      <point x="271" y="54" type="line"/>
      <point x="104" y="54" type="line"/>
      <point x="104" y="57" type="line"/>
      <point x="135" y="79"/>
      <point x="151" y="110"/>
      <point x="157" y="159" type="curve" smooth="yes"/>
      <point x="192" y="441" type="line" smooth="yes"/>
      <point x="201" y="509"/>
      <point x="237" y="544"/>
      <point x="299" y="544" type="curve" smooth="yes"/>
      <point x="330" y="544"/>
      <point x="363" y="535"/>
      <point x="397" y="513" type="curve"/>
      <point x="402" y="518" type="line"/>
      <point x="413" y="575" type="line"/>
      <point x="375" y="587"/>
      <point x="341" y="593"/>
      <point x="308" y="593" type="curve" smooth="yes"/>
    </contour>
    <contour>
      <point x="46" y="335" type="line"/>
      <point x="38" y="298" type="line"/>
      <point x="41" y="292" type="line"/>
      <point x="300" y="292" type="line"/>
      <point x="309" y="330" type="line"/>
      <point x="306" y="335" type="line"/>
    </contour>
  </outline>
</glyph>
<glyph name="brokenbar" format="1">
  <advance width="314"/>
  <unicode hex="00A6"/>
  <outline>
    <contour>
      <point x="196" y="792" type="line"/>
      <point x="145" y="372" type="line"/>
      <point x="151" y="366" type="line"/>
      <point x="204" y="372" type="line"/>
      <point x="256" y="792" type="line"/>
      <point x="251" y="797" type="line"/>
    </contour>
    <contour>
      <point x="118" y="154" type="line"/>
      <point x="68" y="-254" type="line"/>
      <point x="73" y="-262" type="line"/>
      <point x="126" y="-259" type="line"/>
      <point x="177" y="152" type="line"/>
      <point x="170" y="160" type="line"/>
    </contour>
  </outline>
</glyph>
<glyph name="copyright" format="1">
  <advance width="691"/>
  <unicode hex="00A9"/>
  <outline>
    <contour>
      <point x="175" y="598"/>
      <point x="57" y="476"/>
      <point x="57" y="293" type="curve" smooth="yes"/>
      <point x="57" y="110"/>
      <point x="175" y="-12"/>
      <point x="352" y="-12" type="curve" smooth="yes"/>
      <point x="530" y="-12"/>
      <point x="648" y="110"/>
      <point x="648" y="293" type="curve" smooth="yes"/>
      <point x="648" y="476"/>
      <point x="530" y="598"/>
      <point x="352" y="598" type="curve" smooth="yes"/>
    </contour>
    <contour>
      <point x="264" y="465"/>
      <point x="207" y="403"/>
      <point x="207" y="294" type="curve" smooth="yes"/>
      <point x="207" y="186"/>
      <point x="260" y="126"/>
      <point x="362" y="126" type="curve" smooth="yes"/>
      <point x="392" y="126"/>
      <point x="425" y="135"/>
      <point x="453" y="149" type="curve"/>
      <point x="458" y="193" type="line"/>
      <point x="452" y="195" type="line"/>
      <point x="426" y="180"/>
      <point x="393" y="171"/>
      <point x="365" y="171" type="curve" smooth="yes"/>
      <point x="297" y="171"/>
      <point x="261" y="215"/>
      <point x="261" y="298" type="curve" smooth="yes"/>
      <point x="261" y="379"/>
      <point x="297" y="420"/>
      <point x="366" y="420" type="curve" smooth="yes"/>
      <point x="393" y="420"/>
      <point x="424" y="412"/>
      <point x="446" y="397" type="curve"/>
      <point x="451" y="399" type="line"/>
      <point x="462" y="442" type="line"/>
      <point x="434" y="456"/>
      <point x="401" y="465"/>
      <point x="368" y="465" type="curve" smooth="yes"/>
    </contour>
    <contour>
      <point x="510" y="565"/>
      <point x="615" y="456"/>
      <point x="615" y="293" type="curve" smooth="yes"/>
      <point x="615" y="130"/>
      <point x="510" y="21"/>
      <point x="353" y="21" type="curve" smooth="yes"/>
      <point x="195" y="21"/>
      <point x="90" y="130"/>
      <point x="90" y="293" type="curve" smooth="yes"/>
      <point x="90" y="456"/>
      <point x="195" y="565"/>
      <point x="353" y="565" type="curve" smooth="yes"/>
    </contour>
  </outline>
</glyph>
<glyph name="degree" format="1">
  <advance width="294"/>
  <unicode hex="00B0"/>
  <outline>
    <contour>
      <point x="123" y="647"/>
      <point x="56" y="586"/>
      <point x="56" y="510" type="curve" smooth="yes"/>
      <point x="56" y="447"/>
      <point x="103" y="399"/>
      <point x="168" y="399" type="curve" smooth="yes"/>
      <point x="243" y="399"/>
      <point x="309" y="460"/>
      <point x="309" y="536" type="curve" smooth="yes"/>
      <point x="309" y="598"/>
      <point x="263" y="647"/>
      <point x="198" y="647" type="curve" smooth="yes"/>
    </contour>
    <contour>
      <point x="237" y="609"/>
      <point x="270" y="574"/>
      <point x="270" y="531" type="curve" smooth="yes"/>
      <point x="270" y="480"/>
      <point x="224" y="436"/>
      <point x="172" y="436" type="curve" smooth="yes"/>
      <point x="127" y="436"/>
      <point x="94" y="472"/>
      <point x="94" y="515" type="curve" smooth="yes"/>
      <point x="94" y="566"/>
      <point x="142" y="609"/>
      <point x="193" y="609" type="curve" smooth="yes"/>
    </contour>
  </outline>
</glyph>
<glyph name="cedilla" format="1">
  <advance width="390"/>
  <unicode hex="00B8"/>
  <outline>
    <contour>
      <point x="129" y="19" type="line"/>
      <point x="105" y="-71" type="line"/>
      <point x="152" y="-100" type="line" smooth="yes"/>
      <point x="165" y="-106"/>
      <point x="174" y="-112"/>
      <point x="174" y="-125" type="curve" smooth="yes"/>
      <point x="174" y="-143"/>
      <point x="160" y="-152"/>
      <point x="141" y="-152" type="curve" smooth="yes"/>
      <point x="117" y="-152"/>
      <point x="102" y="-140"/>
      <point x="86" y="-121" type="curve"/>
      <point x="81" y="-123" type="line"/>
      <point x="73" y="-161" type="line"/>
      <point x="88" y="-177"/>
      <point x="111" y="-192"/>
      <point x="145" y="-192" type="curve" smooth="yes"/>
      <point x="191" y="-192"/>
      <point x="224" y="-166"/>
      <point x="224" y="-127" type="curve" smooth="yes"/>
      <point x="224" y="-105"/>
      <point x="214" y="-87"/>
      <point x="186" y="-72" type="curve" smooth="yes"/>
      <point x="152" y="-52" type="line"/>
      <point x="173" y="19" type="line"/>
    </contour>
    <contour>
      <point x="159" y="-1" type="move" name="_bottom"/>
    </contour>
  </outline>
</glyph>
<glyph name="Thorn" format="1">
  <advance width="502"/>
  <unicode hex="00DE"/>
  <outline>
    <contour>
      <point x="145" y="640" type="line"/>
      <point x="92" y="193" type="line"/>
      <point x="64" y="0" type="line"/>
      <point x="139" y="0" type="line"/>
      <point x="160" y="199" type="line"/>
      <point x="219" y="640" type="line"/>
    </contour>
    <contour>
      <point x="134" y="528" type="line"/>
      <point x="165" y="464" type="line"/>
      <point x="293" y="467" type="line"/>
      <point x="373" y="463"/>
      <point x="404" y="425"/>
      <point x="404" y="354" type="curve" smooth="yes"/>
      <point x="404" y="257"/>
      <point x="350" y="187"/>
      <point x="270" y="176" type="curve"/>
      <point x="117" y="179" type="line"/>
      <point x="109" y="115" type="line"/>
      <point x="226" y="115" type="line"/>
      <point x="385" y="115"/>
      <point x="482" y="220"/>
      <point x="482" y="364" type="curve" smooth="yes"/>
      <point x="482" y="476"/>
      <point x="415" y="529"/>
      <point x="310" y="529" type="curve"/>
    </contour>
  </outline>
</glyph>
<glyph name="ae" format="1">
  <advance width="609"/>
  <unicode hex="00E6"/>
  <outline>
    <contour>
      <point x="281" y="465" type="line"/>
      <point x="276" y="465" type="line"/>
      <point x="118" y="440"/>
      <point x="40" y="289"/>
      <point x="40" y="150" type="curve" smooth="yes"/>
      <point x="40" y="71"/>
      <point x="67" y="21"/>
      <point x="116" y="-7" type="curve"/>
      <point x="131" y="-7" type="line"/>
      <point x="184" y="43"/>
      <point x="233" y="107"/>
      <point x="277" y="179" type="curve"/>
      <point x="276" y="175"/>
      <point x="276" y="164"/>
      <point x="276" y="160" type="curve" smooth="yes"/>
      <point x="276" y="61"/>
      <point x="308" y="3"/>
      <point x="400" y="-7" type="curve"/>
      <point x="413" y="-7" type="line"/>
      <point x="473" y="7"/>
      <point x="524" y="48"/>
      <point x="569" y="114" type="curve"/>
      <point x="544" y="149" type="line"/>
      <point x="532" y="150" type="line"/>
      <point x="506" y="96"/>
      <point x="457" y="56"/>
      <point x="411" y="56" type="curve" smooth="yes"/>
      <point x="371" y="56"/>
      <point x="349" y="88"/>
      <point x="347" y="161" type="curve" smooth="yes"/>
      <point x="347" y="164"/>
      <point x="347" y="170"/>
      <point x="347" y="174" type="curve"/>
      <point x="519" y="233"/>
      <point x="596" y="300"/>
      <point x="596" y="376" type="curve" smooth="yes"/>
      <point x="596" y="428"/>
      <point x="564" y="457"/>
      <point x="510" y="465" type="curve"/>
      <point x="501" y="466" type="line" smooth="yes"/>
      <point x="458" y="464"/>
      <point x="419" y="450"/>
      <point x="386" y="426" type="curve"/>
    </contour>
    <contour>
      <point x="336" y="375" type="line"/>
      <point x="325" y="361"/>
      <point x="316" y="345"/>
      <point x="308" y="328" type="curve"/>
      <point x="234" y="161"/>
      <point x="157" y="75"/>
      <point x="137" y="75" type="curve" smooth="yes"/>
      <point x="124" y="75"/>
      <point x="107" y="95"/>
      <point x="107" y="170" type="curve" smooth="yes"/>
      <point x="107" y="297"/>
      <point x="164" y="404"/>
      <point x="261" y="404" type="curve"/>
    </contour>
    <contour>
      <point x="513" y="412"/>
      <point x="528" y="396"/>
      <point x="528" y="371" type="curve" smooth="yes"/>
      <point x="528" y="316"/>
      <point x="466" y="267"/>
      <point x="349" y="230" type="curve"/>
      <point x="362" y="340"/>
      <point x="413" y="412"/>
      <point x="481" y="412" type="curve" smooth="yes"/>
    </contour>
    <contour>
      <point x="612" y="0" type="move" name="bottom"/>
    </contour>
    <contour>
      <point x="405" y="10" type="move" name="ogonek"/>
    </contour>
    <contour>
      <point x="352" y="459" type="move" name="top"/>
    </contour>
  </outline>
</glyph>
<glyph name="eth" format="1">
  <advance width="437"/>
  <unicode hex="00F0"/>
  <outline>
    <contour>
      <point x="124" y="705" type="line"/>
      <point x="75" y="669" type="line"/>
      <point x="73" y="659" type="line"/>
      <point x="240" y="586"/>
      <point x="320" y="471"/>
      <point x="320" y="309" type="curve"/>
      <point x="319" y="153"/>
      <point x="270" y="48"/>
      <point x="177" y="48" type="curve" smooth="yes"/>
      <point x="131" y="48"/>
      <point x="113" y="78"/>
      <point x="113" y="150" type="curve" smooth="yes"/>
      <point x="113" y="304"/>
      <point x="163" y="408"/>
      <point x="256" y="408" type="curve" smooth="yes"/>
      <point x="291" y="408"/>
      <point x="312" y="393"/>
      <point x="324" y="357" type="curve"/>
      <point x="366" y="390" type="line"/>
      <point x="350" y="430"/>
      <point x="320" y="452"/>
      <point x="275" y="459" type="curve"/>
      <point x="266" y="459" type="line"/>
      <point x="130" y="452"/>
      <point x="46" y="325"/>
      <point x="46" y="149" type="curve" smooth="yes"/>
      <point x="46" y="50"/>
      <point x="84" y="6"/>
      <point x="160" y="-8" type="curve"/>
      <point x="168" y="-9" type="line"/>
      <point x="306" y="3"/>
      <point x="388" y="130"/>
      <point x="388" y="313" type="curve"/>
      <point x="389" y="483"/>
      <point x="300" y="627"/>
      <point x="130" y="705" type="curve"/>
    </contour>
    <contour>
      <point x="79" y="540" type="line"/>
      <point x="90" y="503" type="line"/>
      <point x="97" y="500" type="line"/>
      <point x="392" y="643" type="line"/>
      <point x="380" y="681" type="line"/>
      <point x="373" y="684" type="line"/>
    </contour>
  </outline>
</glyph>
<glyph name="thorn" format="1">
  <advance width="446"/>
  <unicode hex="00FE"/>
  <outline>
    <contour>
      <point x="318" y="465" type="line"/>
      <point x="260" y="409"/>
      <point x="206" y="335"/>
      <point x="160" y="255" type="curve"/>
      <point x="140" y="255" type="line"/>
      <point x="125" y="98" type="line"/>
      <point x="204" y="286"/>
      <point x="290" y="382"/>
      <point x="310" y="382" type="curve" smooth="yes"/>
      <point x="323" y="382"/>
      <point x="340" y="363"/>
      <point x="340" y="289" type="curve" smooth="yes"/>
      <point x="340" y="161"/>
      <point x="284" y="53"/>
      <point x="188" y="53" type="curve"/>
      <point x="102" y="77" type="line"/>
      <point x="68" y="16" type="line"/>
      <point x="168" y="-7" type="line"/>
      <point x="173" y="-7" type="line"/>
      <point x="329" y="17"/>
      <point x="408" y="168"/>
      <point x="408" y="308" type="curve" smooth="yes"/>
      <point x="408" y="387"/>
      <point x="381" y="436"/>
      <point x="333" y="465" type="curve"/>
    </contour>
    <contour>
      <point x="137" y="697" type="line"/>
      <point x="133" y="599" type="line"/>
      <point x="23" y="-192" type="line"/>
      <point x="99" y="-185" type="line"/>
      <point x="104" y="-75" type="line"/>
      <point x="211" y="703" type="line"/>
    </contour>
  </outline>
</glyph>
<glyph name="dcroat" format="1">
  <advance width="453"/>
  <unicode hex="0111"/>
  <outline>
    <contour>
      <point x="222" y="603" type="line"/>
      <point x="217" y="562" type="line"/>
      <point x="223" y="557" type="line"/>
      <point x="489" y="557" type="line"/>
      <point x="493" y="596" type="line"/>
      <point x="487" y="603" type="line"/>
    </contour>
    <component base="d"/>
  </outline>
</glyph>
<glyph name="iogonek" format="1">
  <advance width="218"/>
  <unicode hex="012F"/>
  <outline>
    <contour>
      <point x="63" y="19" type="line"/>
      <point x="-8" y="-63"/>
      <point x="-29" y="-94"/>
      <point x="-29" y="-129" type="curve" smooth="yes"/>
      <point x="-29" y="-170"/>
      <point x="-1" y="-197"/>
      <point x="38" y="-197" type="curve" smooth="yes"/>
      <point x="70" y="-197"/>
      <point x="96" y="-178"/>
      <point x="122" y="-149" type="curve"/>
      <point x="108" y="-110" type="line"/>
      <point x="105" y="-110" type="line"/>
      <point x="87" y="-134"/>
      <point x="67" y="-145"/>
      <point x="49" y="-145" type="curve" smooth="yes"/>
      <point x="33" y="-145"/>
      <point x="21" y="-136"/>
      <point x="21" y="-117" type="curve" smooth="yes"/>
      <point x="21" y="-95"/>
      <point x="39" y="-67"/>
      <point x="107" y="12" type="curve"/>
    </contour>
    <component base="i"/>
  </outline>
</glyph>
<glyph name="kgreenlandic" format="1">
  <advance width="466"/>
  <unicode hex="0138"/>
  <outline>
    <contour>
      <point x="340" y="463" type="line"/>
      <point x="275" y="422"/>
      <point x="220" y="343"/>
      <point x="153" y="241" type="curve"/>
      <point x="138" y="241" type="line"/>
      <point x="117" y="81" type="line"/>
      <point x="220" y="294"/>
      <point x="297" y="382"/>
      <point x="339" y="382" type="curve" smooth="yes"/>
      <point x="351" y="382"/>
      <point x="365" y="375"/>
      <point x="365" y="348" type="curve" smooth="yes"/>
      <point x="365" y="296"/>
      <point x="316" y="246"/>
      <point x="226" y="191" type="curve"/>
      <point x="223" y="178" type="line"/>
      <point x="258" y="115"/>
      <point x="294" y="52"/>
      <point x="334" y="-8" type="curve"/>
      <point x="342" y="-12" type="line"/>
      <point x="405" y="0" type="line"/>
      <point x="407" y="7" type="line"/>
      <point x="366" y="63"/>
      <point x="327" y="123"/>
      <point x="291" y="182" type="curve"/>
      <point x="384" y="237"/>
      <point x="437" y="299"/>
      <point x="437" y="366" type="curve" smooth="yes"/>
      <point x="437" y="424"/>
      <point x="403" y="454"/>
      <point x="354" y="464" type="curve"/>
    </contour>
    <component base="dotlessi"/>
  </outline>
</glyph>
<glyph name="Lcaron" format="1">
  <advance width="404"/>
  <unicode hex="013D"/>
  <outline>
    <contour>
      <point x="206" y="197" type="move"/>
    </contour>
    <component base="L"/>
    <component base="caron.alt" xOffset="137" yOffset="-104"/>
  </outline>
</glyph>
<glyph name="ldot" format="1">
  <advance width="242"/>
  <unicode hex="0140"/>
  <outline>
    <contour>
      <point x="172" y="-78" type="move"/>
    </contour>
    <component base="l"/>
    <component base="periodcentered" xOffset="122" yOffset="35"/>
  </outline>
</glyph>
<glyph name="Lslash" format="1">
  <advance width="406"/>
  <unicode hex="0141"/>
  <outline>
    <contour>
      <point x="19" y="303" type="line"/>
      <point x="27" y="258" type="line"/>
      <point x="35" y="253" type="line"/>
      <point x="343" y="413" type="line"/>
      <point x="334" y="458" type="line"/>
      <point x="326" y="462" type="line"/>
    </contour>
    <component base="L" xOffset="9"/>
  </outline>
</glyph>
<glyph name="lslash" format="1">
  <advance width="243"/>
  <unicode hex="0142"/>
  <outline>
    <contour>
      <point x="142" y="410" type="line"/>
      <point x="131" y="407" type="line"/>
      <point x="17" y="349" type="line"/>
      <point x="28" y="298" type="line"/>
      <point x="32" y="295" type="line"/>
      <point x="135" y="347" type="line"/>
      <point x="146" y="350" type="line"/>
      <point x="262" y="410" type="line"/>
      <point x="250" y="461" type="line"/>
      <point x="246" y="463" type="line"/>
    </contour>
    <contour>
      <point x="139" y="697" type="line"/>
      <point x="136" y="600" type="line"/>
      <point x="51" y="-4" type="line"/>
      <point x="127" y="3" type="line"/>
      <point x="131" y="109" type="line"/>
      <point x="215" y="704" type="line"/>
    </contour>
    <contour>
      <point x="81" y="0" type="move" name="bottom"/>
    </contour>
    <contour>
      <point x="167" y="700" type="move" name="top"/>
    </contour>
    <contour>
      <point x="226" y="458" type="move" name="topright"/>
    </contour>
  </outline>
</glyph>
<glyph name="OE" format="1">
  <advance width="813"/>
  <unicode hex="0152"/>
  <outline>
    <contour>
      <point x="177" y="652"/>
      <point x="46" y="502"/>
      <point x="46" y="261" type="curve" smooth="yes"/>
      <point x="46" y="90"/>
      <point x="135" y="-12"/>
      <point x="295" y="-12" type="curve" smooth="yes"/>
      <point x="353" y="-12"/>
      <point x="416" y="1"/>
      <point x="472" y="0" type="curve" smooth="yes"/>
      <point x="754" y="0" type="line"/>
      <point x="768" y="59" type="line"/>
      <point x="763" y="66" type="line"/>
      <point x="613" y="62" type="line"/>
      <point x="496" y="64" type="line"/>
      <point x="511" y="195" type="line"/>
      <point x="523" y="297" type="line"/>
      <point x="627" y="298" type="line"/>
      <point x="739" y="296" type="line"/>
      <point x="753" y="354" type="line"/>
      <point x="749" y="361" type="line"/>
      <point x="641" y="358" type="line"/>
      <point x="534" y="360" type="line"/>
      <point x="561" y="578" type="line"/>
      <point x="690" y="578" type="line"/>
      <point x="825" y="574" type="line"/>
      <point x="839" y="633" type="line"/>
      <point x="835" y="640" type="line"/>
      <point x="552" y="640" type="line" smooth="yes"/>
      <point x="499" y="640"/>
      <point x="453" y="652"/>
      <point x="394" y="652" type="curve" smooth="yes"/>
    </contour>
    <contour>
      <point x="420" y="590"/>
      <point x="461" y="582"/>
      <point x="475" y="577" type="curve" smooth="yes"/>
      <point x="484" y="573"/>
      <point x="486" y="565"/>
      <point x="483" y="540" type="curve" smooth="yes"/>
      <point x="432" y="94" type="line" smooth="yes"/>
      <point x="429" y="74"/>
      <point x="421" y="66"/>
      <point x="402" y="61" type="curve" smooth="yes"/>
      <point x="385" y="56"/>
      <point x="346" y="51"/>
      <point x="311" y="51" type="curve" smooth="yes"/>
      <point x="184" y="51"/>
      <point x="123" y="126"/>
      <point x="123" y="265" type="curve" smooth="yes"/>
      <point x="123" y="471"/>
      <point x="211" y="590"/>
      <point x="379" y="590" type="curve" smooth="yes"/>
    </contour>
    <contour>
      <point x="589" y="640" type="move" name="top"/>
    </contour>
  </outline>
</glyph>
<glyph name="oe" format="1">
  <advance width="646"/>
  <unicode hex="0153"/>
  <outline>
    <contour>
      <point x="127" y="458"/>
      <point x="42" y="329"/>
      <point x="42" y="150" type="curve" smooth="yes"/>
      <point x="42" y="51"/>
      <point x="80" y="6"/>
      <point x="157" y="-8" type="curve"/>
      <point x="165" y="-9" type="line"/>
      <point x="304" y="3"/>
      <point x="381" y="130"/>
      <point x="381" y="314" type="curve" smooth="yes"/>
      <point x="381" y="407"/>
      <point x="349" y="454"/>
      <point x="275" y="466" type="curve"/>
      <point x="267" y="466" type="line"/>
    </contour>
    <contour>
      <point x="298" y="407"/>
      <point x="317" y="378"/>
      <point x="317" y="309" type="curve" smooth="yes"/>
      <point x="317" y="154"/>
      <point x="267" y="49"/>
      <point x="174" y="49" type="curve" smooth="yes"/>
      <point x="129" y="49"/>
      <point x="111" y="80"/>
      <point x="111" y="150" type="curve" smooth="yes"/>
      <point x="111" y="304"/>
      <point x="161" y="407"/>
      <point x="254" y="407" type="curve" smooth="yes"/>
    </contour>
    <contour>
      <point x="366" y="170" type="line"/>
      <point x="548" y="229"/>
      <point x="629" y="298"/>
      <point x="629" y="376" type="curve" smooth="yes"/>
      <point x="629" y="428"/>
      <point x="597" y="457"/>
      <point x="543" y="465" type="curve"/>
      <point x="534" y="466" type="line"/>
      <point x="400" y="461"/>
      <point x="316" y="337"/>
      <point x="316" y="160" type="curve"/>
      <point x="316" y="61"/>
      <point x="341" y="3"/>
      <point x="434" y="-7" type="curve"/>
      <point x="445" y="-7" type="line"/>
      <point x="506" y="7"/>
      <point x="556" y="48"/>
      <point x="602" y="114" type="curve"/>
      <point x="577" y="149" type="line"/>
      <point x="565" y="150" type="line"/>
      <point x="538" y="96"/>
      <point x="490" y="56"/>
      <point x="444" y="56" type="curve" smooth="yes"/>
      <point x="401" y="56"/>
      <point x="380" y="92"/>
      <point x="380" y="177" type="curve" smooth="yes"/>
      <point x="380" y="316"/>
      <point x="437" y="412"/>
      <point x="515" y="412" type="curve" smooth="yes"/>
      <point x="548" y="412"/>
      <point x="561" y="396"/>
      <point x="561" y="371" type="curve" smooth="yes"/>
      <point x="561" y="313"/>
      <point x="494" y="263"/>
      <point x="366" y="225" type="curve"/>
    </contour>
    <contour>
      <point x="593" y="0" type="move" name="bottom"/>
    </contour>
    <contour>
      <point x="743" y="10" type="move" name="ogonek"/>
    </contour>
    <contour>
      <point x="464" y="458" type="move" name="top"/>
    </contour>
  </outline>
</glyph>
<glyph name="uhorn" format="1">
  <advance width="473"/>
  <unicode hex="01B0"/>
  <outline>
    <contour>
      <point x="104" y="458" type="line"/>
      <point x="96" y="353" type="line"/>
      <point x="55" y="95" type="line"/>
      <point x="54" y="82" type="line"/>
      <point x="53" y="35"/>
      <point x="88" y="6"/>
      <point x="131" y="-4" type="curve"/>
      <point x="142" y="-4" type="line"/>
      <point x="202" y="42"/>
      <point x="252" y="110"/>
      <point x="317" y="223" type="curve"/>
      <point x="333" y="223" type="line"/>
      <point x="352" y="384" type="line"/>
      <point x="259" y="178"/>
      <point x="183" y="78"/>
      <point x="144" y="78" type="curve" smooth="yes"/>
      <point x="132" y="78"/>
      <point x="124" y="89"/>
      <point x="125" y="115" type="curve"/>
      <point x="126" y="129" type="line"/>
      <point x="178" y="464" type="line"/>
    </contour>
    <contour>
      <point x="349" y="456" type="line"/>
      <point x="344" y="359" type="line"/>
      <point x="293" y="-4" type="line"/>
      <point x="368" y="3" type="line"/>
      <point x="373" y="109" type="line"/>
      <point x="423" y="463" type="line"/>
    </contour>
    <contour>
      <point x="451" y="611"/>
      <point x="438" y="604"/>
      <point x="423" y="593" type="curve"/>
      <point x="421" y="585" type="line"/>
      <point x="443" y="563"/>
      <point x="453" y="540"/>
      <point x="453" y="520" type="curve" smooth="yes"/>
      <point x="453" y="489"/>
      <point x="430" y="469"/>
      <point x="379" y="462" type="curve" smooth="yes"/>
      <point x="349" y="456" type="line"/>
      <point x="399" y="424" type="line"/>
      <point x="472" y="443"/>
      <point x="515" y="480"/>
      <point x="515" y="533" type="curve" smooth="yes"/>
      <point x="515" y="577"/>
      <point x="485" y="611"/>
      <point x="463" y="611" type="curve" smooth="yes"/>
    </contour>
    <contour>
      <point x="269" y="458" type="move" name="top"/>
    </contour>
  </outline>
</glyph>
<glyph name="pi" format="1">
  <advance width="613"/>
  <unicode hex="03C0"/>
  <outline>
    <contour>
      <point x="487" y="498" type="line"/>
      <point x="132" y="498" type="line"/>
      <point x="116" y="492" type="line"/>
      <point x="29" y="410" type="line"/>
      <point x="28" y="401" type="line"/>
      <point x="47" y="373" type="line"/>
      <point x="56" y="373" type="line"/>
      <point x="96" y="407"/>
      <point x="124" y="437"/>
      <point x="144" y="437" type="curve" smooth="yes"/>
      <point x="421" y="437" type="line"/>
      <point x="378" y="92" type="line" smooth="yes"/>
      <point x="369" y="20"/>
      <point x="398" y="-5"/>
      <point x="440" y="-5" type="curve" smooth="yes"/>
      <point x="458" y="-5"/>
      <point x="478" y="2"/>
      <point x="499" y="14" type="curve"/>
      <point x="513" y="58" type="line"/>
      <point x="507" y="62" type="line"/>
      <point x="494" y="55"/>
      <point x="479" y="51"/>
      <point x="468" y="51" type="curve" smooth="yes"/>
      <point x="447" y="51"/>
      <point x="441" y="66"/>
      <point x="446" y="101" type="curve" smooth="yes"/>
      <point x="489" y="437" type="line"/>
      <point x="593" y="436" type="line"/>
      <point x="606" y="491" type="line"/>
      <point x="601" y="499" type="line"/>
    </contour>
    <contour>
      <point x="187" y="475" type="line"/>
      <point x="154" y="194" type="line"/>
      <point x="116" y="-94" type="line"/>
      <point x="187" y="-94" type="line"/>
      <point x="223" y="200" type="line"/>
      <point x="257" y="479" type="line"/>
    </contour>
  </outline>
</glyph>
<glyph name="endash" format="1">
  <advance width="479"/>
  <unicode hex="2013"/>
  <outline>
    <contour>
      <point x="-3" y="282" type="line"/>
      <point x="-13" y="235" type="line"/>
      <point x="-8" y="229" type="line"/>
      <point x="492" y="229" type="line"/>
      <point x="501" y="276" type="line"/>
      <point x="496" y="282" type="line"/>
    </contour>
  </outline>
</glyph>
<glyph name="daggerdbl" format="1">
  <advance width="480"/>
  <unicode hex="2021"/>
  <outline>
    <contour>
      <point x="256" y="585" type="line"/>
      <point x="219" y="283" type="line"/>
      <point x="174" y="-87" type="line"/>
      <point x="179" y="-94" type="line"/>
      <point x="227" y="-91" type="line"/>
      <point x="274" y="287" type="line"/>
      <point x="311" y="585" type="line"/>
      <point x="307" y="590" type="line"/>
    </contour>
    <contour>
      <point x="36" y="138" type="line"/>
      <point x="25" y="91" type="line"/>
      <point x="31" y="85" type="line"/>
      <point x="417" y="85" type="line"/>
      <point x="427" y="132" type="line"/>
      <point x="421" y="138" type="line"/>
    </contour>
    <contour>
      <point x="69" y="407" type="line"/>
      <point x="58" y="361" type="line"/>
      <point x="63" y="355" type="line"/>
      <point x="450" y="355" type="line"/>
      <point x="460" y="402" type="line"/>
      <point x="454" y="407" type="line"/>
    </contour>
  </outline>
</glyph>
<glyph name="franc" format="1">
  <advance width="397"/>
  <unicode hex="20A3"/>
  <outline>
    <contour>
      <point x="125" y="497" type="line"/>
      <point x="85" y="150" type="line"/>
      <point x="64" y="0" type="line"/>
      <point x="126" y="0" type="line"/>
      <point x="142" y="155" type="line"/>
      <point x="187" y="497" type="line"/>
    </contour>
    <contour>
      <point x="16" y="139" type="line"/>
      <point x="9" y="105" type="line"/>
      <point x="12" y="101" type="line"/>
      <point x="254" y="101" type="line"/>
      <point x="260" y="135" type="line"/>
      <point x="257" y="139" type="line"/>
    </contour>
    <contour>
      <point x="251" y="272" type="line"/>
      <point x="142" y="272" type="line"/>
      <point x="133" y="227" type="line"/>
      <point x="136" y="223" type="line"/>
      <point x="240" y="223" type="line"/>
      <point x="335" y="222" type="line"/>
      <point x="345" y="266" type="line"/>
      <point x="342" y="273" type="line"/>
    </contour>
    <contour>
      <point x="166" y="497" type="line"/>
      <point x="158" y="452" type="line"/>
      <point x="160" y="448" type="line"/>
      <point x="282" y="448" type="line"/>
      <point x="406" y="446" type="line"/>
      <point x="417" y="490" type="line"/>
      <point x="413" y="497" type="line"/>
    </contour>
  </outline>
</glyph>
<glyph name="partialdiff" format="1">
  <advance width="510"/>
  <unicode hex="2202"/>
  <outline>
    <contour>
      <point x="174" y="716" type="line"/>
      <point x="121" y="679" type="line"/>
      <point x="120" y="670" type="line"/>
      <point x="329" y="594"/>
      <point x="426" y="459"/>
      <point x="401" y="255" type="curve"/>
      <point x="384" y="120"/>
      <point x="323" y="48"/>
      <point x="225" y="48" type="curve"/>
      <point x="134" y="48"/>
      <point x="92" y="104"/>
      <point x="105" y="206" type="curve"/>
      <point x="117" y="309"/>
      <point x="174" y="362"/>
      <point x="266" y="362" type="curve"/>
      <point x="316" y="362"/>
      <point x="366" y="337"/>
      <point x="410" y="292" type="curve"/>
      <point x="410" y="386" type="line"/>
      <point x="392" y="372" type="line"/>
      <point x="354" y="400"/>
      <point x="308" y="420"/>
      <point x="263" y="422" type="curve"/>
      <point x="134" y="422"/>
      <point x="51" y="335"/>
      <point x="35" y="207" type="curve"/>
      <point x="19" y="78"/>
      <point x="79" y="-8"/>
      <point x="216" y="-8" type="curve"/>
      <point x="358" y="-8"/>
      <point x="451" y="91"/>
      <point x="471" y="259" type="curve"/>
      <point x="497" y="472"/>
      <point x="390" y="626"/>
      <point x="182" y="716" type="curve"/>
    </contour>
  </outline>
</glyph>
<glyph name="fi" format="1">
  <advance width="498"/>
  <unicode hex="FB01"/>
  <outline>
    <contour>
      <point x="218" y="704"/>
      <point x="163" y="637"/>
      <point x="146" y="518" type="curve" smooth="yes"/>
      <point x="101" y="190" type="line"/>
      <point x="56" y="-127" type="line"/>
      <point x="132" y="-121" type="line"/>
      <point x="137" y="-14" type="line"/>
      <point x="167" y="199" type="line"/>
      <point x="213" y="537" type="line" smooth="yes"/>
      <point x="223" y="609"/>
      <point x="260" y="649"/>
      <point x="313" y="649" type="curve" smooth="yes"/>
      <point x="344" y="649"/>
      <point x="375" y="636"/>
      <point x="408" y="614" type="curve"/>
      <point x="420" y="616" type="line"/>
      <point x="438" y="675" type="line"/>
      <point x="435" y="682" type="line"/>
      <point x="329" y="704" type="line"/>
    </contour>
    <contour>
      <point x="63" y="450" type="line"/>
      <point x="56" y="405" type="line"/>
      <point x="61" y="400" type="line"/>
      <point x="419" y="400" type="line"/>
      <point x="425" y="442" type="line"/>
      <point x="420" y="450" type="line"/>
    </contour>
    <contour>
      <point x="377" y="448" type="line"/>
      <point x="373" y="359" type="line"/>
      <point x="321" y="-4" type="line"/>
      <point x="397" y="3" type="line"/>
      <point x="401" y="109" type="line"/>
      <point x="450" y="459" type="line"/>
      <point x="444" y="463" type="line"/>
    </contour>
    <contour>
      <point x="417" y="458" type="move" name="_top"/>
    </contour>
    <contour>
      <point x="451" y="10" type="move" name="ogonek"/>
    </contour>
    <contour>
      <point x="417" y="458" type="move" name="top"/>
    </contour>
  </outline>
</glyph>
<glyph name="C.ss01" format="1">
  <advance width="436"/>
  <outline>
    <contour>
      <point x="142" y="496"/>
      <point x="46" y="387"/>
      <point x="46" y="203" type="curve" smooth="yes"/>
      <point x="46" y="75"/>
      <point x="110" y="2"/>
      <point x="229" y="2" type="curve" smooth="yes"/>
      <point x="278" y="2"/>
      <point x="321" y="15"/>
      <point x="366" y="38" type="curve"/>
      <point x="380" y="102" type="line"/>
      <point x="371" y="105" type="line"/>
      <point x="333" y="77"/>
      <point x="284" y="59"/>
      <point x="239" y="59" type="curve" smooth="yes"/>
      <point x="161" y="59"/>
      <point x="117" y="113"/>
      <point x="117" y="212" type="curve" smooth="yes"/>
      <point x="117" y="360"/>
      <point x="178" y="439"/>
      <point x="287" y="439" type="curve" smooth="yes"/>
      <point x="334" y="439"/>
      <point x="372" y="422"/>
      <point x="399" y="395" type="curve"/>
      <point x="408" y="398" type="line"/>
      <point x="429" y="461" type="line"/>
      <point x="395" y="483"/>
      <point x="351" y="496"/>
      <point x="301" y="496" type="curve" smooth="yes"/>
    </contour>
    <contour>
      <point x="-119" y="33" type="line"/>
      <point x="-124" y="0" type="line"/>
      <point x="504" y="0" type="line"/>
      <point x="509" y="33" type="line"/>
    </contour>
    <contour>
      <point x="-60" y="498" type="line"/>
      <point x="-65" y="464" type="line"/>
      <point x="562" y="464" type="line"/>
      <point x="568" y="498" type="line"/>
    </contour>
    <contour>
      <point x="223" y="8" type="move" name="bottom"/>
    </contour>
    <contour>
      <point x="282" y="491" type="move" name="top"/>
    </contour>
  </outline>
</glyph>
<glyph name="X.ss01" format="1">
  <advance width="492"/>
  <outline>
    <contour>
      <point x="399" y="486" type="line"/>
      <point x="376" y="448" type="line"/>
      <point x="258" y="301" type="line"/>
      <point x="176" y="447" type="line"/>
      <point x="162" y="486" type="line"/>
      <point x="79" y="486" type="line"/>
      <point x="208" y="253" type="line"/>
      <point x="16" y="13" type="line"/>
      <point x="86" y="13" type="line"/>
      <point x="111" y="49" type="line"/>
      <point x="240" y="209" type="line"/>
      <point x="327" y="53" type="line"/>
      <point x="344" y="13" type="line"/>
      <point x="424" y="13" type="line"/>
      <point x="292" y="258" type="line"/>
      <point x="473" y="486" type="line"/>
    </contour>
    <contour>
      <point x="-119" y="33" type="line"/>
      <point x="-124" y="0" type="line"/>
      <point x="560" y="0" type="line"/>
      <point x="565" y="33" type="line"/>
    </contour>
    <contour>
      <point x="-60" y="498" type="line"/>
      <point x="-65" y="464" type="line"/>
      <point x="619" y="464" type="line"/>
      <point x="624" y="498" type="line"/>
    </contour>
  </outline>
</glyph>
<glyph name="acute.cap" format="1">
  <advance width="390"/>
  <outline>
    <contour>
      <point x="254" y="639"/>
      <point x="193" y="607"/>
      <point x="131" y="576" type="curve"/>
      <point x="145" y="542" type="line"/>
      <point x="154" y="538" type="line"/>
      <point x="218" y="566"/>
      <point x="280" y="592"/>
      <point x="347" y="624" type="curve"/>
      <point x="350" y="633" type="line"/>
      <point x="330" y="677" type="line"/>
      <point x="322" y="679" type="line"/>
    </contour>
    <contour>
      <point x="212" y="458" type="move" name="_top"/>
    </contour>
  </outline>
</glyph>
<glyph name="breveacute" format="1">
  <advance width="390"/>
  <outline>
    <contour>
      <point x="336" y="637" type="line"/>
      <point x="317" y="599"/>
      <point x="283" y="577"/>
      <point x="238" y="577" type="curve" smooth="yes"/>
      <point x="191" y="577"/>
      <point x="162" y="599"/>
      <point x="154" y="637" type="curve"/>
      <point x="142" y="637" type="line"/>
      <point x="117" y="611" type="line"/>
      <point x="129" y="554"/>
      <point x="173" y="522"/>
      <point x="238" y="522" type="curve" smooth="yes"/>
      <point x="295" y="522"/>
      <point x="341" y="554"/>
      <point x="366" y="611" type="curve"/>
      <point x="348" y="637" type="line"/>
    </contour>
    <contour>
      <point x="287" y="761" type="line"/>
      <point x="258" y="724"/>
      <point x="230" y="690"/>
      <point x="200" y="655" type="curve"/>
      <point x="226" y="633" type="line"/>
      <point x="234" y="633" type="line"/>
      <point x="267" y="666"/>
      <point x="299" y="697"/>
      <point x="330" y="730" type="curve"/>
      <point x="329" y="738" type="line"/>
      <point x="295" y="762" type="line"/>
    </contour>
    <contour>
      <point x="222" y="458" type="move" name="_top"/>
    </contour>
  </outline>
</glyph>
<glyph name="caron.alt" format="1">
  <advance width="390"/>
  <outline>
    <contour>
      <point x="222" y="682" type="line"/>
      <point x="196" y="510" type="line"/>
      <point x="201" y="504" type="line"/>
      <point x="239" y="510" type="line"/>
      <point x="282" y="680" type="line"/>
      <point x="277" y="686" type="line"/>
    </contour>
    <contour>
      <point x="239" y="458" type="move" name="_topright"/>
    </contour>
  </outline>
</glyph>
<glyph name="circle1" format="1">
  <advance width="450"/>
  <outline>
    <contour>
      <point x="96" y="464"/>
      <point x="-11" y="357"/>
      <point x="-11" y="226" type="curve" smooth="yes"/>
      <point x="-11" y="95"/>
      <point x="96" y="-12"/>
      <point x="227" y="-12" type="curve" smooth="yes"/>
      <point x="358" y="-12"/>
      <point x="465" y="95"/>
      <point x="465" y="226" type="curve" smooth="yes"/>
      <point x="465" y="357"/>
      <point x="358" y="464"/>
      <point x="227" y="464" type="curve" smooth="yes"/>
    </contour>
  </outline>
</glyph>
<glyph name="circle2" format="1">
  <advance width="636"/>
  <outline>
    <contour>
      <point x="135" y="649"/>
      <point x="-13" y="500"/>
      <point x="-13" y="317" type="curve" smooth="yes"/>
      <point x="-13" y="134"/>
      <point x="135" y="-14"/>
      <point x="318" y="-14" type="curve" smooth="yes"/>
      <point x="501" y="-14"/>
      <point x="650" y="134"/>
      <point x="650" y="317" type="curve" smooth="yes"/>
      <point x="650" y="500"/>
      <point x="501" y="649"/>
      <point x="318" y="649" type="curve" smooth="yes"/>
    </contour>
  </outline>
</glyph>
<glyph name="circumflexgrave" format="1">
  <advance width="390"/>
  <outline>
    <contour>
      <point x="234" y="652" type="line"/>
      <point x="196" y="621"/>
      <point x="155" y="591"/>
      <point x="110" y="563" type="curve"/>
      <point x="122" y="530" type="line"/>
      <point x="131" y="530" type="line"/>
      <point x="169" y="553"/>
      <point x="205" y="574"/>
      <point x="241" y="597" type="curve"/>
      <point x="272" y="574"/>
      <point x="302" y="553"/>
      <point x="334" y="530" type="curve"/>
      <point x="343" y="530" type="line"/>
      <point x="362" y="563" type="line"/>
      <point x="326" y="591"/>
      <point x="289" y="621"/>
      <point x="256" y="652" type="curve"/>
    </contour>
    <contour>
      <point x="260" y="743" type="line"/>
      <point x="257" y="734" type="line"/>
      <point x="327" y="648" type="line"/>
      <point x="344" y="636" type="line"/>
      <point x="371" y="656" type="line"/>
      <point x="314" y="746" type="line"/>
      <point x="297" y="760" type="line"/>
    </contour>
    <contour>
      <point x="222" y="458" type="move" name="_top"/>
    </contour>
  </outline>
</glyph>
<glyph name="circumflexhookabove" format="1">
  <advance width="390"/>
  <outline>
    <contour>
      <point x="232" y="653" type="line"/>
      <point x="194" y="622"/>
      <point x="153" y="592"/>
      <point x="108" y="564" type="curve"/>
      <point x="120" y="531" type="line"/>
      <point x="129" y="531" type="line"/>
      <point x="167" y="553"/>
      <point x="203" y="575"/>
      <point x="239" y="598" type="curve"/>
      <point x="270" y="575"/>
      <point x="300" y="553"/>
      <point x="332" y="531" type="curve"/>
      <point x="341" y="531" type="line"/>
      <point x="360" y="564" type="line"/>
      <point x="324" y="592"/>
      <point x="287" y="622"/>
      <point x="254" y="653" type="curve"/>
    </contour>
    <contour>
      <point x="302" y="799"/>
      <point x="272" y="784"/>
      <point x="248" y="760" type="curve"/>
      <point x="264" y="736" type="line"/>
      <point x="281" y="751"/>
      <point x="302" y="759"/>
      <point x="318" y="759" type="curve" smooth="yes"/>
      <point x="333" y="759"/>
      <point x="344" y="752"/>
      <point x="344" y="739" type="curve" smooth="yes"/>
      <point x="344" y="723"/>
      <point x="326" y="700"/>
      <point x="296" y="677" type="curve"/>
      <point x="325" y="627" type="line"/>
      <point x="357" y="644" type="line"/>
      <point x="339" y="676" type="line"/>
      <point x="372" y="704"/>
      <point x="387" y="724"/>
      <point x="387" y="746" type="curve" smooth="yes"/>
      <point x="387" y="776"/>
      <point x="362" y="799"/>
      <point x="328" y="799" type="curve" smooth="yes"/>
    </contour>
    <contour>
      <point x="222" y="458" type="move" name="_top"/>
    </contour>
  </outline>
</glyph>
<glyph name="eight.dnom" format="1">
  <advance width="340"/>
  <outline>
    <contour>
      <point x="113" y="381"/>
      <point x="59" y="338"/>
      <point x="59" y="269" type="curve" smooth="yes"/>
      <point x="59" y="229"/>
      <point x="85" y="206"/>
      <point x="117" y="190" type="curve"/>
      <point x="117" y="188" type="line"/>
      <point x="65" y="169"/>
      <point x="22" y="140"/>
      <point x="22" y="85" type="curve" smooth="yes"/>
      <point x="22" y="32"/>
      <point x="63" y="-5"/>
      <point x="136" y="-5" type="curve" smooth="yes"/>
      <point x="222" y="-5"/>
      <point x="281" y="42"/>
      <point x="281" y="114" type="curve" smooth="yes"/>
      <point x="281" y="160"/>
      <point x="247" y="180"/>
      <point x="210" y="197" type="curve"/>
      <point x="211" y="201" type="line"/>
      <point x="256" y="221"/>
      <point x="292" y="247"/>
      <point x="292" y="299" type="curve" smooth="yes"/>
      <point x="292" y="349"/>
      <point x="252" y="381"/>
      <point x="192" y="381" type="curve" smooth="yes"/>
    </contour>
    <contour>
      <point x="192" y="156"/>
      <point x="228" y="142"/>
      <point x="228" y="105" type="curve" smooth="yes"/>
      <point x="228" y="67"/>
      <point x="196" y="38"/>
      <point x="144" y="38" type="curve" smooth="yes"/>
      <point x="101" y="38"/>
      <point x="77" y="59"/>
      <point x="77" y="91" type="curve" smooth="yes"/>
      <point x="77" y="138"/>
      <point x="116" y="158"/>
      <point x="156" y="170" type="curve"/>
    </contour>
    <contour>
      <point x="220" y="338"/>
      <point x="241" y="320"/>
      <point x="241" y="291" type="curve" smooth="yes"/>
      <point x="241" y="249"/>
      <point x="208" y="230"/>
      <point x="173" y="215" type="curve"/>
      <point x="142" y="229"/>
      <point x="114" y="243"/>
      <point x="114" y="276" type="curve" smooth="yes"/>
      <point x="114" y="314"/>
      <point x="142" y="338"/>
      <point x="186" y="338" type="curve" smooth="yes"/>
    </contour>
  </outline>
</glyph>
<glyph name="f.l" format="1">
  <advance width="279"/>
  <outline>
    <contour>
      <point x="222" y="711"/>
      <point x="165" y="643"/>
      <point x="147" y="525" type="curve" smooth="yes"/>
      <point x="101" y="190" type="line"/>
      <point x="57" y="-127" type="line"/>
      <point x="132" y="-121" type="line"/>
      <point x="137" y="-14" type="line"/>
      <point x="167" y="199" type="line"/>
      <point x="214" y="543" type="line" smooth="yes"/>
      <point x="225" y="616"/>
      <point x="264" y="655"/>
      <point x="321" y="655" type="curve" smooth="yes"/>
      <point x="358" y="655"/>
      <point x="393" y="647"/>
      <point x="430" y="634" type="curve"/>
      <point x="441" y="636" type="line"/>
      <point x="457" y="691" type="line"/>
      <point x="454" y="696" type="line"/>
      <point x="338" y="711" type="line"/>
    </contour>
    <contour>
      <point x="63" y="450" type="line"/>
      <point x="56" y="405" type="line"/>
      <point x="61" y="400" type="line"/>
      <point x="308" y="400" type="line"/>
      <point x="315" y="442" type="line"/>
      <point x="309" y="450" type="line"/>
    </contour>
  </outline>
</glyph>
<glyph name="five.dnom" format="1">
  <advance width="303"/>
  <outline>
    <contour>
      <point x="221" y="377" type="line"/>
      <point x="122" y="377" type="line"/>
      <point x="86" y="378" type="line"/>
      <point x="76" y="370" type="line"/>
      <point x="53" y="200" type="line"/>
      <point x="57" y="194" type="line"/>
      <point x="115" y="183" type="line" smooth="yes"/>
      <point x="166" y="172"/>
      <point x="189" y="154"/>
      <point x="189" y="125" type="curve" smooth="yes"/>
      <point x="189" y="75"/>
      <point x="145" y="44"/>
      <point x="77" y="44" type="curve" smooth="yes"/>
      <point x="57" y="44"/>
      <point x="34" y="46"/>
      <point x="12" y="51" type="curve"/>
      <point x="7" y="47" type="line"/>
      <point x="5" y="2" type="line"/>
      <point x="26" y="-2"/>
      <point x="52" y="-5"/>
      <point x="70" y="-5" type="curve" smooth="yes"/>
      <point x="176" y="-5"/>
      <point x="252" y="52"/>
      <point x="252" y="135" type="curve" smooth="yes"/>
      <point x="252" y="182"/>
      <point x="218" y="212"/>
      <point x="149" y="227" type="curve" smooth="yes"/>
      <point x="107" y="237" type="line"/>
      <point x="121" y="328" type="line"/>
      <point x="220" y="328" type="line"/>
      <point x="266" y="324" type="line"/>
      <point x="271" y="328" type="line"/>
      <point x="284" y="376" type="line"/>
      <point x="281" y="379" type="line"/>
    </contour>
  </outline>
</glyph>
<glyph name="four.tf" format="1">
  <advance width="475"/>
  <outline>
    <contour>
      <point x="314" y="586" type="line"/>
      <point x="25" y="227" type="line"/>
      <point x="20" y="176" type="line"/>
      <point x="25" y="169" type="line"/>
      <point x="88" y="171" type="line"/>
      <point x="337" y="171" type="line"/>
      <point x="425" y="169" type="line"/>
      <point x="436" y="222" type="line"/>
      <point x="431" y="229" type="line"/>
      <point x="93" y="229" type="line"/>
      <point x="306" y="494" type="line"/>
      <point x="313" y="494" type="line"/>
      <point x="278" y="212" type="line"/>
      <point x="248" y="0" type="line"/>
      <point x="252" y="-6" type="line"/>
      <point x="310" y="-1" type="line"/>
      <point x="315" y="6" type="line"/>
      <point x="335" y="201" type="line"/>
      <point x="385" y="586" type="line"/>
    </contour>
  </outline>
</glyph>
<glyph name="one.tf" format="1">
  <advance width="475"/>
  <outline>
    <contour>
      <point x="78" y="533" type="line"/>
      <point x="71" y="474" type="line"/>
      <point x="78" y="470" type="line"/>
      <point x="254" y="507" type="line"/>
      <point x="216" y="198" type="line"/>
      <point x="188" y="0" type="line"/>
      <point x="263" y="0" type="line"/>
      <point x="284" y="207" type="line"/>
      <point x="335" y="585" type="line"/>
      <point x="325" y="594" type="line"/>
    </contour>
  </outline>
</glyph>
<glyph name="p.sups" format="1">
  <advance width="311"/>
  <outline>
    <contour>
      <point x="247" y="644" type="line"/>
      <point x="213" y="610"/>
      <point x="179" y="560"/>
      <point x="152" y="506" type="curve"/>
      <point x="142" y="506" type="line"/>
      <point x="126" y="408" type="line"/>
      <point x="178" y="523"/>
      <point x="227" y="588"/>
      <point x="239" y="588" type="curve" smooth="yes"/>
      <point x="247" y="588"/>
      <point x="259" y="572"/>
      <point x="259" y="523" type="curve" smooth="yes"/>
      <point x="259" y="444"/>
      <point x="226" y="377"/>
      <point x="173" y="377" type="curve"/>
      <point x="112" y="394" type="line"/>
      <point x="81" y="348" type="line"/>
      <point x="161" y="333" type="line"/>
      <point x="165" y="333" type="line"/>
      <point x="262" y="351"/>
      <point x="314" y="445"/>
      <point x="314" y="546" type="curve" smooth="yes"/>
      <point x="314" y="598"/>
      <point x="299" y="627"/>
      <point x="256" y="644" type="curve"/>
    </contour>
    <contour>
      <point x="162" y="644" type="line"/>
      <point x="101" y="640" type="line"/>
      <point x="98" y="573" type="line"/>
      <point x="49" y="208" type="line"/>
      <point x="111" y="212" type="line"/>
      <point x="117" y="284" type="line"/>
      <point x="162" y="644" type="line"/>
    </contour>
    <contour>
      <point x="6" y="0" type="move" name="bottom"/>
    </contour>
    <contour>
      <point x="6" y="0" type="move" name="top"/>
    </contour>
  </outline>
</glyph>
<glyph name="ringacute" format="1">
  <advance width="390"/>
  <outline>
    <contour>
      <point x="185" y="674"/>
      <point x="154" y="641"/>
      <point x="154" y="592" type="curve" smooth="yes"/>
      <point x="154" y="540"/>
      <point x="189" y="510"/>
      <point x="235" y="510" type="curve" smooth="yes"/>
      <point x="282" y="510"/>
      <point x="319" y="540"/>
      <point x="319" y="594" type="curve" smooth="yes"/>
      <point x="319" y="639"/>
      <point x="291" y="674"/>
      <point x="237" y="674" type="curve" smooth="yes"/>
    </contour>
    <contour>
      <point x="266" y="636"/>
      <point x="282" y="617"/>
      <point x="282" y="591" type="curve" smooth="yes"/>
      <point x="282" y="562"/>
      <point x="262" y="547"/>
      <point x="236" y="547" type="curve" smooth="yes"/>
      <point x="209" y="547"/>
      <point x="190" y="563"/>
      <point x="190" y="593" type="curve" smooth="yes"/>
      <point x="190" y="619"/>
      <point x="206" y="636"/>
      <point x="235" y="636" type="curve" smooth="yes"/>
    </contour>
    <contour>
      <point x="280" y="774"/>
      <point x="215" y="752"/>
      <point x="149" y="732" type="curve"/>
      <point x="157" y="696" type="line"/>
      <point x="165" y="690" type="line"/>
      <point x="233" y="708"/>
      <point x="299" y="723"/>
      <point x="370" y="745" type="curve"/>
      <point x="374" y="752" type="line"/>
      <point x="362" y="799" type="line"/>
      <point x="354" y="802" type="line"/>
    </contour>
    <contour>
      <point x="222" y="458" type="move" name="_top"/>
    </contour>
  </outline>
</glyph>
<glyph name="three.tosf" format="1">
  <advance width="476"/>
  <outline>
    <contour>
      <point x="185" y="502"/>
      <point x="136" y="482"/>
      <point x="77" y="440" type="curve"/>
      <point x="82" y="380" type="line"/>
      <point x="90" y="380" type="line"/>
      <point x="142" y="419"/>
      <point x="186" y="440"/>
      <point x="234" y="440" type="curve" smooth="yes"/>
      <point x="287" y="440"/>
      <point x="322" y="413"/>
      <point x="322" y="369" type="curve" smooth="yes"/>
      <point x="322" y="297"/>
      <point x="234" y="245"/>
      <point x="173" y="245" type="curve" smooth="yes"/>
      <point x="125" y="244" type="line"/>
      <point x="116" y="192" type="line"/>
      <point x="121" y="186" type="line"/>
      <point x="183" y="186" type="line"/>
      <point x="268" y="183"/>
      <point x="316" y="151"/>
      <point x="316" y="91" type="curve" smooth="yes"/>
      <point x="316" y="13"/>
      <point x="238" y="-37"/>
      <point x="138" y="-37" type="curve" smooth="yes"/>
      <point x="99" y="-37"/>
      <point x="64" y="-29"/>
      <point x="31" y="-14" type="curve"/>
      <point x="23" y="-20" type="line"/>
      <point x="21" y="-87" type="line"/>
      <point x="52" y="-93"/>
      <point x="94" y="-97"/>
      <point x="129" y="-97" type="curve" smooth="yes"/>
      <point x="276" y="-97"/>
      <point x="389" y="-14"/>
      <point x="389" y="97" type="curve" smooth="yes"/>
      <point x="389" y="166"/>
      <point x="345" y="206"/>
      <point x="270" y="224" type="curve"/>
      <point x="270" y="227" type="line"/>
      <point x="357" y="265"/>
      <point x="400" y="325"/>
      <point x="400" y="383" type="curve" smooth="yes"/>
      <point x="400" y="452"/>
      <point x="339" y="502"/>
      <point x="245" y="502" type="curve" smooth="yes"/>
    </contour>
  </outline>
</glyph>
<glyph name="two.lf" format="1">
  <advance width="489"/>
  <outline>
    <contour>
      <point x="211" y="592"/>
      <point x="148" y="557"/>
      <point x="92" y="502" type="curve"/>
      <point x="97" y="442" type="line"/>
      <point x="106" y="442" type="line"/>
      <point x="156" y="496"/>
      <point x="212" y="527"/>
      <point x="267" y="527" type="curve" smooth="yes"/>
      <point x="322" y="527"/>
      <point x="348" y="495"/>
      <point x="348" y="457" type="curve" smooth="yes"/>
      <point x="348" y="401"/>
      <point x="293" y="337"/>
      <point x="204" y="240" type="curve" smooth="yes"/>
      <point x="29" y="50" type="line"/>
      <point x="23" y="2" type="line"/>
      <point x="27" y="-2" type="line"/>
      <point x="69" y="0" type="line"/>
      <point x="317" y="0" type="line"/>
      <point x="425" y="-4" type="line"/>
      <point x="443" y="59" type="line"/>
      <point x="438" y="66" type="line"/>
      <point x="345" y="60" type="line"/>
      <point x="130" y="60" type="line"/>
      <point x="129" y="64" type="line"/>
      <point x="269" y="220" type="line" smooth="yes"/>
      <point x="378" y="341"/>
      <point x="423" y="396"/>
      <point x="423" y="462" type="curve" smooth="yes"/>
      <point x="423" y="538"/>
      <point x="362" y="592"/>
      <point x="278" y="592" type="curve" smooth="yes"/>
    </contour>
  </outline>
</glyph>
<glyph name="w.sups" format="1">
  <advance width="473"/>
  <outline>
    <contour>
      <point x="419" y="632" type="line"/>
      <point x="427" y="618"/>
      <point x="432" y="603"/>
      <point x="432" y="588" type="curve" smooth="yes"/>
      <point x="432" y="569"/>
      <point x="425" y="547"/>
      <point x="412" y="521" type="curve" smooth="yes"/>
      <point x="354" y="405" type="line"/>
      <point x="348" y="405" type="line"/>
      <point x="331" y="603" type="line"/>
      <point x="330" y="641" type="line"/>
      <point x="265" y="641" type="line"/>
      <point x="250" y="598" type="line"/>
      <point x="167" y="405" type="line"/>
      <point x="161" y="405" type="line"/>
      <point x="146" y="603" type="line"/>
      <point x="144" y="644" type="line"/>
      <point x="84" y="639" type="line"/>
      <point x="118" y="337" type="line"/>
      <point x="185" y="337" type="line"/>
      <point x="280" y="561" type="line"/>
      <point x="285" y="561" type="line"/>
      <point x="306" y="337" type="line"/>
      <point x="372" y="337" type="line"/>
      <point x="463" y="504" type="line" smooth="yes"/>
      <point x="480" y="538"/>
      <point x="490" y="565"/>
      <point x="490" y="590" type="curve" smooth="yes"/>
      <point x="490" y="609"/>
      <point x="485" y="626"/>
      <point x="475" y="645" type="curve"/>
    </contour>
    <contour>
      <point x="6" y="0" type="move" name="top"/>
    </contour>
  </outline>
</glyph>
<glyph name="z.sups" format="1">
  <advance width="285"/>
  <outline>
    <contour>
      <point x="275" y="652" type="line"/>
      <point x="258" y="641" type="line"/>
      <point x="137" y="643" type="line"/>
      <point x="90" y="646" type="line"/>
      <point x="84" y="642" type="line"/>
      <point x="74" y="592" type="line"/>
      <point x="77" y="587" type="line"/>
      <point x="116" y="591" type="line"/>
      <point x="206" y="592" type="line"/>
      <point x="26" y="350" type="line"/>
      <point x="45" y="334" type="line"/>
      <point x="52" y="334" type="line"/>
      <point x="66" y="347"/>
      <point x="78" y="352"/>
      <point x="91" y="352" type="curve" smooth="yes"/>
      <point x="121" y="352"/>
      <point x="154" y="331"/>
      <point x="191" y="331" type="curve" smooth="yes"/>
      <point x="245" y="331"/>
      <point x="277" y="368"/>
      <point x="283" y="458" type="curve"/>
      <point x="257" y="468" type="line"/>
      <point x="248" y="465" type="line"/>
      <point x="244" y="408"/>
      <point x="226" y="384"/>
      <point x="191" y="384" type="curve" smooth="yes"/>
      <point x="175" y="384"/>
      <point x="147" y="396"/>
      <point x="131" y="396" type="curve"/>
      <point x="115" y="393" type="line"/>
      <point x="295" y="634" type="line"/>
      <point x="275" y="652" type="line"/>
    </contour>
    <contour>
      <point x="6" y="0" type="move" name="top"/>
    </contour>
  </outline>
</glyph>
<glyph name="zero.dnom" format="1">
  <advance width="377"/>
  <outline>
    <contour>
      <point x="97" y="380"/>
      <point x="34" y="292"/>
      <point x="34" y="147" type="curve" smooth="yes"/>
      <point x="34" y="50"/>
      <point x="77" y="-5"/>
      <point x="158" y="-5" type="curve" smooth="yes"/>
      <point x="271" y="-5"/>
      <point x="332" y="84"/>
      <point x="332" y="230" type="curve" smooth="yes"/>
      <point x="332" y="326"/>
      <point x="289" y="380"/>
      <point x="209" y="380" type="curve" smooth="yes"/>
    </contour>
    <contour>
      <point x="252" y="323"/>
      <point x="279" y="285"/>
      <point x="279" y="215" type="curve" smooth="yes"/>
      <point x="279" y="112"/>
      <point x="241" y="50"/>
      <point x="165" y="50" type="curve" smooth="yes"/>
      <point x="112" y="50"/>
      <point x="85" y="87"/>
      <point x="85" y="158" type="curve" smooth="yes"/>
      <point x="85" y="261"/>
      <point x="123" y="323"/>
      <point x="197" y="323" type="curve" smooth="yes"/>
    </contour>
  </outline>
</glyph>
